<svg width="14185" height="1009" viewBox="0 0 14185 1009" fill="none" xmlns="http://www.w3.org/2000/svg">
<rect x="2449.29" y="999.321" width="3.17166" height="3.17166" fill="white"/>
<rect x="2185.05" y="913.687" width="98.3214" height="91.9781" fill="black"/>
<rect x="2440" y="913.687" width="98.3214" height="91.9781" fill="black"/>
<rect x="2185.05" y="961.262" width="12.6866" height="12.6866" fill="#C83535"/>
<rect x="2194.57" y="999.321" width="3.17166" height="3.17166" fill="white"/>
<rect x="2270.69" y="961.262" width="12.6866" height="12.6866" fill="#C83535"/>
<rect x="2197.74" y="926.373" width="72.9481" height="19.0299" fill="#C83535"/>
<rect x="4579.66" y="913.687" width="98.3214" height="91.9781" fill="black"/>
<rect x="4579.66" y="961.262" width="12.6866" height="12.6866" fill="#C83535"/>
<rect x="4589.17" y="999.321" width="3.17166" height="3.17166" fill="white"/>
<rect x="4665.29" y="961.262" width="12.6866" height="12.6866" fill="#C83535"/>
<rect x="4592.34" y="926.373" width="72.9481" height="19.0299" fill="#C83535"/>
<rect x="4708.69" y="926.373" width="72.9481" height="19.0299" fill="#C83535"/>
<rect x="4696" y="913.687" width="98.3214" height="91.9781" fill="black"/>
<rect x="4696" y="961.262" width="12.6866" height="12.6866" fill="#C83535"/>
<rect x="4734.06" y="901" width="12.6866" height="12.6866" fill="#FF0000"/>
<rect x="6936.06" y="904.172" width="12.6866" height="12.6866" fill="#FF0000"/>
<rect x="7091.47" y="904.172" width="12.6866" height="12.6866" fill="#FF0000"/>
<rect x="7246.88" y="904.172" width="12.6866" height="12.6866" fill="#FF0000"/>
<rect x="7402.29" y="904.172" width="12.6866" height="12.6866" fill="#FF0000"/>
<rect x="9431.29" y="904.172" width="12.6866" height="12.6866" fill="#FF0000"/>
<rect x="9547.22" y="904.172" width="12.6866" height="12.6866" fill="#FF0000"/>
<rect x="11680" y="904.172" width="12.6866" height="12.6866" fill="#FF0000"/>
<rect x="11841.7" y="904.172" width="12.6866" height="12.6866" fill="#FF0000"/>
<rect x="12003.5" y="904.172" width="12.6866" height="12.6866" fill="#FF0000"/>
<rect x="12165.3" y="904.172" width="12.6866" height="12.6866" fill="#FF0000"/>
<rect x="4705.51" y="999.321" width="3.17166" height="3.17166" fill="white"/>
<rect x="4781.63" y="961.262" width="12.6866" height="12.6866" fill="#C83535"/>
<rect x="4746.75" y="901" width="12.6866" height="12.6866" fill="#0022FF"/>
<rect x="6948.75" y="904.172" width="12.6866" height="12.6866" fill="#0022FF"/>
<rect x="7104.16" y="904.172" width="12.6866" height="12.6866" fill="#0022FF"/>
<rect x="7259.57" y="904.172" width="12.6866" height="12.6866" fill="#0022FF"/>
<rect x="7414.98" y="904.172" width="12.6866" height="12.6866" fill="#0022FF"/>
<rect x="9443.97" y="904.172" width="12.6866" height="12.6866" fill="#0022FF"/>
<rect x="9559.91" y="904.172" width="12.6866" height="12.6866" fill="#0022FF"/>
<rect x="11692.7" y="904.172" width="12.6866" height="12.6866" fill="#0022FF"/>
<rect x="11854.4" y="904.172" width="12.6866" height="12.6866" fill="#0022FF"/>
<rect x="12016.2" y="904.172" width="12.6866" height="12.6866" fill="#0022FF"/>
<rect x="12177.9" y="904.172" width="12.6866" height="12.6866" fill="#0022FF"/>
<rect x="4808.02" y="913.687" width="98.3214" height="91.9781" fill="black"/>
<rect x="4808.02" y="961.262" width="12.6866" height="12.6866" fill="#C83535"/>
<rect x="4817.53" y="999.321" width="3.17166" height="3.17166" fill="white"/>
<rect x="4893.65" y="961.262" width="12.6866" height="12.6866" fill="#C83535"/>
<rect x="4820.7" y="926.373" width="72.9481" height="19.0299" fill="#C83535"/>
<rect x="4922.2" y="913.687" width="98.3214" height="91.9781" fill="black"/>
<rect x="4922.2" y="961.262" width="12.6866" height="12.6866" fill="white"/>
<rect x="4931.71" y="999.321" width="3.17166" height="3.17166" fill="white"/>
<rect x="5007.83" y="961.262" width="12.6866" height="12.6866" fill="white"/>
<rect x="4934.88" y="926.373" width="72.9481" height="19.0299" fill="white"/>
<rect x="6900" y="916.858" width="98.3214" height="91.9781" fill="black"/>
<rect x="6900" y="964.433" width="12.6866" height="12.6866" fill="#C83535"/>
<rect x="6909.52" y="1002.49" width="3.17166" height="3.17166" fill="white"/>
<rect x="6985.64" y="964.433" width="12.6866" height="12.6866" fill="#C83535"/>
<rect x="6912.69" y="929.545" width="72.9481" height="19.0299" fill="#C83535"/>
<rect x="7055.41" y="916.858" width="98.3214" height="91.9781" fill="black"/>
<rect x="7055.41" y="964.433" width="12.6866" height="12.6866" fill="#C83535"/>
<rect x="7064.93" y="1002.49" width="3.17166" height="3.17166" fill="white"/>
<rect x="7141.05" y="964.433" width="12.6866" height="12.6866" fill="#C83535"/>
<rect x="7068.1" y="929.545" width="72.9481" height="19.0299" fill="#C83535"/>
<rect x="7210.82" y="916.858" width="98.3214" height="91.9781" fill="black"/>
<rect x="7210.82" y="964.433" width="12.6866" height="12.6866" fill="#C83535"/>
<rect x="7220.34" y="1002.49" width="3.17166" height="3.17166" fill="white"/>
<rect x="7296.46" y="964.433" width="12.6866" height="12.6866" fill="#C83535"/>
<rect x="7223.51" y="929.545" width="72.9481" height="19.0299" fill="#C83535"/>
<rect x="7366.23" y="916.858" width="98.3214" height="91.9781" fill="black"/>
<rect x="7366.23" y="964.433" width="12.6866" height="12.6866" fill="#C83535"/>
<rect x="7375.75" y="1002.49" width="3.17166" height="3.17166" fill="white"/>
<rect x="7451.87" y="964.433" width="12.6866" height="12.6866" fill="#C83535"/>
<rect x="7378.92" y="929.545" width="72.9481" height="19.0299" fill="#C83535"/>
<rect x="9391.06" y="916.858" width="98.3214" height="91.9781" fill="black"/>
<rect x="9391.06" y="964.433" width="12.6866" height="12.6866" fill="white"/>
<rect x="9400.58" y="1002.49" width="3.17166" height="3.17166" fill="white"/>
<rect x="9476.7" y="964.433" width="12.6866" height="12.6866" fill="white"/>
<rect x="9403.75" y="929.545" width="72.9481" height="19.0299" fill="white"/>
<rect x="9507" y="916.858" width="98.3214" height="91.9781" fill="black"/>
<rect x="9507" y="964.433" width="12.6866" height="12.6866" fill="white"/>
<rect x="9516.51" y="1002.49" width="3.17166" height="3.17166" fill="white"/>
<rect x="9592.63" y="964.433" width="12.6866" height="12.6866" fill="white"/>
<rect x="9519.69" y="929.545" width="72.9481" height="19.0299" fill="white"/>
<rect x="11639.8" y="916.858" width="98.3214" height="91.9781" fill="black"/>
<rect x="11639.8" y="964.434" width="12.6866" height="12.6866" fill="#0066FF"/>
<rect x="11649.3" y="1002.49" width="3.17166" height="3.17166" fill="white"/>
<rect x="11725.4" y="964.434" width="12.6866" height="12.6866" fill="#0066FF"/>
<rect x="11652.5" y="929.545" width="72.9481" height="19.0299" fill="#0066FF"/>
<rect x="11801.5" y="916.858" width="98.3214" height="91.9781" fill="black"/>
<rect x="11801.5" y="964.434" width="12.6866" height="12.6866" fill="#0066FF"/>
<rect x="11811" y="1002.49" width="3.17166" height="3.17166" fill="white"/>
<rect x="11887.2" y="964.434" width="12.6866" height="12.6866" fill="#0066FF"/>
<rect x="11814.2" y="929.545" width="72.9481" height="19.0299" fill="#0066FF"/>
<rect x="11963.3" y="916.858" width="98.3214" height="91.9781" fill="black"/>
<rect x="11963.3" y="964.433" width="12.6866" height="12.6866" fill="#0066FF"/>
<rect x="11972.8" y="1002.49" width="3.17166" height="3.17166" fill="white"/>
<rect x="12048.9" y="964.433" width="12.6866" height="12.6866" fill="#0066FF"/>
<rect x="11976" y="929.545" width="72.9481" height="19.0299" fill="#0066FF"/>
<rect x="12125" y="916.858" width="98.3214" height="91.9781" fill="black"/>
<rect x="12125" y="964.434" width="12.6866" height="12.6866" fill="#0066FF"/>
<rect x="12134.5" y="1002.49" width="3.17166" height="3.17166" fill="white"/>
<rect x="12210.7" y="964.434" width="12.6866" height="12.6866" fill="#0066FF"/>
<rect x="12137.7" y="929.545" width="72.9481" height="19.0299" fill="#0066FF"/>
<rect x="2452.46" y="926.373" width="72.9481" height="19.0299" fill="white"/>
<rect x="1833" y="923.202" width="82.4631" height="77.3092" fill="black"/>
<rect x="1833" y="995.357" width="10.3079" height="10.3079" fill="white"/>
<rect x="1905.16" y="995.357" width="10.3079" height="10.3079" fill="white"/>
<rect x="1833" y="938.664" width="82.4631" height="5.15394" fill="white"/>
<rect x="1920.62" y="985.049" width="25.7697" height="20.6158" fill="black"/>
<rect x="1951.54" y="985.049" width="25.7697" height="20.6158" fill="black"/>
<rect x="1936.08" y="964.433" width="25.7697" height="20.6158" fill="black"/>
<rect width="82.4631" height="77.3092" transform="matrix(-1 0 0 1 9957.31 923.202)" fill="black"/>
<rect width="10.3079" height="10.3079" transform="matrix(-1 0 0 1 9957.31 995.357)" fill="white"/>
<rect width="10.3079" height="10.3079" transform="matrix(-1 0 0 1 9885.15 995.357)" fill="white"/>
<rect width="82.4631" height="5.15394" transform="matrix(-1 0 0 1 9957.31 938.664)" fill="white"/>
<rect width="25.7697" height="20.6158" transform="matrix(-1 0 0 1 9869.69 985.049)" fill="black"/>
<rect width="25.7697" height="20.6158" transform="matrix(-1 0 0 1 9838.77 985.049)" fill="black"/>
<rect width="25.7697" height="20.6158" transform="matrix(-1 0 0 1 9854.23 964.433)" fill="black"/>
<rect x="9197.59" y="923.202" width="82.4631" height="77.3092" fill="black"/>
<rect x="9197.59" y="995.357" width="10.3079" height="10.3079" fill="white"/>
<rect x="9269.75" y="995.357" width="10.3079" height="10.3079" fill="white"/>
<rect x="9197.59" y="938.664" width="82.4631" height="5.15394" fill="white"/>
<rect x="9285.21" y="985.049" width="25.7697" height="20.6158" fill="black"/>
<rect x="9316.13" y="985.049" width="25.7697" height="20.6158" fill="black"/>
<rect x="9300.67" y="964.433" width="25.7697" height="20.6158" fill="black"/>
<rect x="2439.78" y="961.262" width="12.6866" height="12.6866" fill="white"/>
<rect x="2525.41" y="961.262" width="12.6866" height="12.6866" fill="white"/>
<rect width="441.235" height="1009" fill="#7A7A7A"/>
<rect x="2767.45" width="441.235" height="1009" fill="#232323"/>
<rect x="5080.69" width="441.235" height="1009" fill="#7A7A7A"/>
<rect x="7526.95" width="441.235" height="1009" fill="#343434"/>
<rect x="9973.2" width="441.235" height="1009" fill="#575757"/>
<rect x="12419.5" width="441.235" height="1009" fill="#575757"/>
<rect x="441.235" y="376.347" width="441.235" height="632.653" fill="#232323"/>
<rect x="3208.69" y="376.347" width="441.235" height="632.653" fill="#575757"/>
<rect x="5521.92" y="376.347" width="441.235" height="632.653" fill="#696969"/>
<rect x="7968.18" y="376.347" width="441.235" height="632.653" fill="#575757"/>
<rect x="10414.4" y="376.347" width="441.235" height="632.653" fill="#696969"/>
<rect x="12860.7" y="376.347" width="441.235" height="632.653" fill="#696969"/>
<rect x="882.47" y="324.438" width="441.235" height="684.563" fill="#464646"/>
<rect x="3649.92" y="324.438" width="441.235" height="684.563" fill="#696969"/>
<rect x="5963.16" y="324.438" width="441.235" height="684.563" fill="#575757"/>
<rect x="8409.42" y="324.438" width="441.235" height="684.563" fill="#696969"/>
<rect x="10855.7" y="324.438" width="441.235" height="684.563" fill="#575757"/>
<rect x="13301.9" y="324.438" width="441.235" height="684.563" fill="#575757"/>
<rect x="1323.7" width="441.235" height="1009" fill="#575757"/>
<rect x="4091.15" width="441.235" height="1009" fill="#464646"/>
<rect x="6404.39" width="441.235" height="1009" fill="#232323"/>
<rect x="8850.65" width="441.235" height="1009" fill="#343434"/>
<rect x="11296.9" width="441.235" height="1009" fill="#696969"/>
<rect x="13743.2" width="441.235" height="1009" fill="#343434"/>
<rect x="55.1543" y="788.383" width="42.1768" height="48.6656" fill="white"/>
<rect x="2822.6" y="788.383" width="42.1768" height="48.6656" fill="white"/>
<rect x="5135.84" y="788.383" width="42.1768" height="48.6656" fill="white"/>
<rect x="7582.1" y="788.383" width="42.1768" height="48.6656" fill="white"/>
<rect x="10028.4" y="788.383" width="42.1768" height="48.6656" fill="white"/>
<rect x="12474.6" y="788.383" width="42.1768" height="48.6656" fill="white"/>
<rect x="496.389" y="788.383" width="42.1768" height="48.6656" fill="white"/>
<rect x="3263.84" y="788.383" width="42.1768" height="48.6656" fill="white"/>
<rect x="5577.08" y="788.383" width="42.1768" height="48.6656" fill="white"/>
<rect x="8023.33" y="788.383" width="42.1768" height="48.6656" fill="white"/>
<rect x="10469.6" y="788.383" width="42.1768" height="48.6656" fill="white"/>
<rect x="12915.8" y="788.383" width="42.1768" height="48.6656" fill="white"/>
<rect x="934.379" y="798.116" width="42.1768" height="48.6656" fill="white"/>
<rect x="3701.83" y="798.116" width="42.1768" height="48.6656" fill="white"/>
<rect x="6015.07" y="798.116" width="42.1768" height="48.6656" fill="white"/>
<rect x="8461.33" y="798.116" width="42.1768" height="48.6656" fill="white"/>
<rect x="10907.6" y="798.116" width="42.1768" height="48.6656" fill="white"/>
<rect x="13353.8" y="798.116" width="42.1768" height="48.6656" fill="white"/>
<rect x="1375.61" y="801.36" width="42.1768" height="48.6656" fill="white"/>
<rect x="4143.06" y="801.36" width="42.1768" height="48.6656" fill="white"/>
<rect x="6456.3" y="801.36" width="42.1768" height="48.6656" fill="white"/>
<rect x="8902.56" y="801.36" width="42.1768" height="48.6656" fill="white"/>
<rect x="11348.8" y="801.36" width="42.1768" height="48.6656" fill="white"/>
<rect x="13795.1" y="801.36" width="42.1768" height="48.6656" fill="white"/>
<rect x="1375.61" y="425.013" width="42.1768" height="48.6656" fill="white"/>
<rect x="4143.06" y="425.013" width="42.1768" height="48.6656" fill="white"/>
<rect x="6456.3" y="425.013" width="42.1768" height="48.6656" fill="white"/>
<rect x="8902.56" y="425.013" width="42.1768" height="48.6656" fill="white"/>
<rect x="11348.8" y="425.013" width="42.1768" height="48.6656" fill="white"/>
<rect x="13795.1" y="425.013" width="42.1768" height="48.6656" fill="white"/>
<rect x="55.1543" y="691.052" width="42.1768" height="48.6656" fill="white"/>
<rect x="2822.6" y="691.052" width="42.1768" height="48.6656" fill="white"/>
<rect x="5135.84" y="691.052" width="42.1768" height="48.6656" fill="white"/>
<rect x="7582.1" y="691.052" width="42.1768" height="48.6656" fill="white"/>
<rect x="10028.4" y="691.052" width="42.1768" height="48.6656" fill="white"/>
<rect x="12474.6" y="691.052" width="42.1768" height="48.6656" fill="white"/>
<rect x="496.389" y="691.052" width="42.1768" height="48.6656" fill="white"/>
<rect x="3263.84" y="691.052" width="42.1768" height="48.6656" fill="white"/>
<rect x="5577.08" y="691.052" width="42.1768" height="48.6656" fill="white"/>
<rect x="8023.33" y="691.052" width="42.1768" height="48.6656" fill="white"/>
<rect x="10469.6" y="691.052" width="42.1768" height="48.6656" fill="white"/>
<rect x="12915.8" y="691.052" width="42.1768" height="48.6656" fill="white"/>
<rect x="934.379" y="700.785" width="42.1768" height="48.6656" fill="white"/>
<rect x="3701.83" y="700.785" width="42.1768" height="48.6656" fill="white"/>
<rect x="6015.07" y="700.785" width="42.1768" height="48.6656" fill="#FFD30F"/>
<rect x="8461.33" y="700.785" width="42.1768" height="48.6656" fill="white"/>
<rect x="10907.6" y="700.785" width="42.1768" height="48.6656" fill="white"/>
<rect x="13353.8" y="700.785" width="42.1768" height="48.6656" fill="white"/>
<rect x="1375.61" y="704.029" width="42.1768" height="48.6656" fill="white"/>
<rect x="4143.06" y="704.029" width="42.1768" height="48.6656" fill="white"/>
<rect x="6456.3" y="704.029" width="42.1768" height="48.6656" fill="white"/>
<rect x="8902.56" y="704.029" width="42.1768" height="48.6656" fill="white"/>
<rect x="11348.8" y="704.029" width="42.1768" height="48.6656" fill="white"/>
<rect x="13795.1" y="704.029" width="42.1768" height="48.6656" fill="white"/>
<rect x="1375.61" y="327.682" width="42.1768" height="48.6656" fill="white"/>
<rect x="4143.06" y="327.682" width="42.1768" height="48.6656" fill="white"/>
<rect x="6456.3" y="327.682" width="42.1768" height="48.6656" fill="white"/>
<rect x="8902.56" y="327.682" width="42.1768" height="48.6656" fill="white"/>
<rect x="11348.8" y="327.682" width="42.1768" height="48.6656" fill="white"/>
<rect x="13795.1" y="327.682" width="42.1768" height="48.6656" fill="white"/>
<rect x="55.1543" y="593.72" width="42.1768" height="48.6656" fill="white"/>
<rect x="2822.6" y="593.72" width="42.1768" height="48.6656" fill="white"/>
<rect x="5135.84" y="593.72" width="42.1768" height="48.6656" fill="white"/>
<rect x="7582.1" y="593.72" width="42.1768" height="48.6656" fill="white"/>
<rect x="10028.4" y="593.72" width="42.1768" height="48.6656" fill="white"/>
<rect x="12474.6" y="593.72" width="42.1768" height="48.6656" fill="white"/>
<rect x="496.389" y="593.72" width="42.1768" height="48.6656" fill="white"/>
<rect x="3263.84" y="593.72" width="42.1768" height="48.6656" fill="white"/>
<rect x="5577.08" y="593.72" width="42.1768" height="48.6656" fill="white"/>
<rect x="8023.33" y="593.72" width="42.1768" height="48.6656" fill="white"/>
<rect x="10469.6" y="593.72" width="42.1768" height="48.6656" fill="white"/>
<rect x="12915.8" y="593.72" width="42.1768" height="48.6656" fill="white"/>
<rect x="934.379" y="603.453" width="42.1768" height="48.6656" fill="white"/>
<rect x="3701.83" y="603.453" width="42.1768" height="48.6656" fill="white"/>
<rect x="6015.07" y="603.453" width="42.1768" height="48.6656" fill="white"/>
<rect x="8461.33" y="603.453" width="42.1768" height="48.6656" fill="white"/>
<rect x="10907.6" y="603.453" width="42.1768" height="48.6656" fill="white"/>
<rect x="13353.8" y="603.453" width="42.1768" height="48.6656" fill="white"/>
<rect x="1375.61" y="606.698" width="42.1768" height="48.6656" fill="white"/>
<rect x="4143.06" y="606.698" width="42.1768" height="48.6656" fill="white"/>
<rect x="6456.3" y="606.698" width="42.1768" height="48.6656" fill="white"/>
<rect x="8902.56" y="606.698" width="42.1768" height="48.6656" fill="white"/>
<rect x="11348.8" y="606.698" width="42.1768" height="48.6656" fill="white"/>
<rect x="13795.1" y="606.698" width="42.1768" height="48.6656" fill="white"/>
<rect x="1375.61" y="230.351" width="42.1768" height="48.6656" fill="white"/>
<rect x="4143.06" y="230.351" width="42.1768" height="48.6656" fill="white"/>
<rect x="6456.3" y="230.351" width="42.1768" height="48.6656" fill="white"/>
<rect x="8902.56" y="230.351" width="42.1768" height="48.6656" fill="white"/>
<rect x="11348.8" y="230.351" width="42.1768" height="48.6656" fill="white"/>
<rect x="13795.1" y="230.351" width="42.1768" height="48.6656" fill="white"/>
<rect x="55.1543" y="496.389" width="42.1768" height="48.6656" fill="white"/>
<rect x="2822.6" y="496.389" width="42.1768" height="48.6656" fill="white"/>
<rect x="5135.84" y="496.389" width="42.1768" height="48.6656" fill="white"/>
<rect x="7582.1" y="496.389" width="42.1768" height="48.6656" fill="white"/>
<rect x="10028.4" y="496.389" width="42.1768" height="48.6656" fill="white"/>
<rect x="12474.6" y="496.389" width="42.1768" height="48.6656" fill="white"/>
<rect x="496.389" y="496.389" width="42.1768" height="48.6656" fill="white"/>
<rect x="3263.84" y="496.389" width="42.1768" height="48.6656" fill="white"/>
<rect x="5577.08" y="496.389" width="42.1768" height="48.6656" fill="white"/>
<rect x="8023.33" y="496.389" width="42.1768" height="48.6656" fill="white"/>
<rect x="10469.6" y="496.389" width="42.1768" height="48.6656" fill="white"/>
<rect x="12915.8" y="496.389" width="42.1768" height="48.6656" fill="white"/>
<rect x="934.379" y="506.122" width="42.1768" height="48.6656" fill="white"/>
<rect x="3701.83" y="506.122" width="42.1768" height="48.6656" fill="white"/>
<rect x="6015.07" y="506.122" width="42.1768" height="48.6656" fill="white"/>
<rect x="8461.33" y="506.122" width="42.1768" height="48.6656" fill="white"/>
<rect x="10907.6" y="506.122" width="42.1768" height="48.6656" fill="white"/>
<rect x="13353.8" y="506.122" width="42.1768" height="48.6656" fill="white"/>
<rect x="1375.61" y="509.367" width="42.1768" height="48.6656" fill="white"/>
<rect x="4143.06" y="509.367" width="42.1768" height="48.6656" fill="white"/>
<rect x="6456.3" y="509.367" width="42.1768" height="48.6656" fill="white"/>
<rect x="8902.56" y="509.367" width="42.1768" height="48.6656" fill="white"/>
<rect x="11348.8" y="509.367" width="42.1768" height="48.6656" fill="white"/>
<rect x="13795.1" y="509.367" width="42.1768" height="48.6656" fill="white"/>
<rect x="1375.61" y="133.019" width="42.1768" height="48.6656" fill="white"/>
<rect x="4143.06" y="133.019" width="42.1768" height="48.6656" fill="white"/>
<rect x="6456.3" y="133.019" width="42.1768" height="48.6656" fill="white"/>
<rect x="8902.56" y="133.019" width="42.1768" height="48.6656" fill="white"/>
<rect x="11348.8" y="133.019" width="42.1768" height="48.6656" fill="white"/>
<rect x="13795.1" y="133.019" width="42.1768" height="48.6656" fill="white"/>
<rect x="934.379" y="421.769" width="42.1768" height="48.6656" fill="white"/>
<rect x="3701.83" y="421.769" width="42.1768" height="48.6656" fill="white"/>
<rect x="6015.07" y="421.769" width="42.1768" height="48.6656" fill="white"/>
<rect x="8461.33" y="421.769" width="42.1768" height="48.6656" fill="white"/>
<rect x="10907.6" y="421.769" width="42.1768" height="48.6656" fill="white"/>
<rect x="13353.8" y="421.769" width="42.1768" height="48.6656" fill="white"/>
<rect x="1375.61" y="425.013" width="42.1768" height="48.6656" fill="white"/>
<rect x="4143.06" y="425.013" width="42.1768" height="48.6656" fill="white"/>
<rect x="6456.3" y="425.013" width="42.1768" height="48.6656" fill="white"/>
<rect x="8902.56" y="425.013" width="42.1768" height="48.6656" fill="white"/>
<rect x="11348.8" y="425.013" width="42.1768" height="48.6656" fill="white"/>
<rect x="13795.1" y="425.013" width="42.1768" height="48.6656" fill="white"/>
<rect x="1375.61" y="48.6655" width="42.1768" height="48.6656" fill="white"/>
<rect x="4143.06" y="48.6655" width="42.1768" height="48.6656" fill="white"/>
<rect x="6456.3" y="48.6655" width="42.1768" height="48.6656" fill="white"/>
<rect x="8902.56" y="48.6655" width="42.1768" height="48.6656" fill="white"/>
<rect x="11348.8" y="48.6655" width="42.1768" height="48.6656" fill="white"/>
<rect x="13795.1" y="48.6655" width="42.1768" height="48.6656" fill="white"/>
<rect x="55.1543" y="399.058" width="42.1768" height="48.6656" fill="white"/>
<rect x="2822.6" y="399.058" width="42.1768" height="48.6656" fill="white"/>
<rect x="5135.84" y="399.058" width="42.1768" height="48.6656" fill="white"/>
<rect x="7582.1" y="399.058" width="42.1768" height="48.6656" fill="white"/>
<rect x="10028.4" y="399.058" width="42.1768" height="48.6656" fill="white"/>
<rect x="12474.6" y="399.058" width="42.1768" height="48.6656" fill="white"/>
<rect x="55.1543" y="301.727" width="42.1768" height="48.6656" fill="white"/>
<rect x="2822.6" y="301.727" width="42.1768" height="48.6656" fill="white"/>
<rect x="5135.84" y="301.727" width="42.1768" height="48.6656" fill="white"/>
<rect x="7582.1" y="301.727" width="42.1768" height="48.6656" fill="white"/>
<rect x="10028.4" y="301.727" width="42.1768" height="48.6656" fill="white"/>
<rect x="12474.6" y="301.727" width="42.1768" height="48.6656" fill="white"/>
<rect x="55.1543" y="204.396" width="42.1768" height="48.6656" fill="white"/>
<rect x="2822.6" y="204.396" width="42.1768" height="48.6656" fill="white"/>
<rect x="5135.84" y="204.396" width="42.1768" height="48.6656" fill="white"/>
<rect x="7582.1" y="204.396" width="42.1768" height="48.6656" fill="white"/>
<rect x="10028.4" y="204.396" width="42.1768" height="48.6656" fill="white"/>
<rect x="12474.6" y="204.396" width="42.1768" height="48.6656" fill="white"/>
<rect x="55.1543" y="107.064" width="42.1768" height="48.6656" fill="white"/>
<rect x="2822.6" y="107.064" width="42.1768" height="48.6656" fill="white"/>
<rect x="5135.84" y="107.064" width="42.1768" height="48.6656" fill="white"/>
<rect x="7582.1" y="107.064" width="42.1768" height="48.6656" fill="white"/>
<rect x="10028.4" y="107.064" width="42.1768" height="48.6656" fill="white"/>
<rect x="12474.6" y="107.064" width="42.1768" height="48.6656" fill="white"/>
<rect x="152.486" y="788.383" width="42.1768" height="48.6656" fill="white"/>
<rect x="2919.94" y="788.383" width="42.1768" height="48.6656" fill="white"/>
<rect x="5233.17" y="788.383" width="42.1768" height="48.6656" fill="white"/>
<rect x="7679.43" y="788.383" width="42.1768" height="48.6656" fill="white"/>
<rect x="10125.7" y="788.383" width="42.1768" height="48.6656" fill="#FFD30F"/>
<rect x="12571.9" y="788.383" width="42.1768" height="48.6656" fill="white"/>
<rect x="593.721" y="788.383" width="42.1768" height="48.6656" fill="white"/>
<rect x="3361.17" y="788.383" width="42.1768" height="48.6656" fill="white"/>
<rect x="5674.41" y="788.383" width="42.1768" height="48.6656" fill="white"/>
<rect x="8120.67" y="788.383" width="42.1768" height="48.6656" fill="white"/>
<rect x="10566.9" y="788.383" width="42.1768" height="48.6656" fill="white"/>
<rect x="13013.2" y="788.383" width="42.1768" height="48.6656" fill="white"/>
<rect x="1031.71" y="798.116" width="42.1768" height="48.6656" fill="white"/>
<rect x="3799.16" y="798.116" width="42.1768" height="48.6656" fill="white"/>
<rect x="6112.4" y="798.116" width="42.1768" height="48.6656" fill="white"/>
<rect x="8558.66" y="798.116" width="42.1768" height="48.6656" fill="white"/>
<rect x="11004.9" y="798.116" width="42.1768" height="48.6656" fill="white"/>
<rect x="13451.2" y="798.116" width="42.1768" height="48.6656" fill="white"/>
<rect x="1472.95" y="801.36" width="42.1768" height="48.6656" fill="white"/>
<rect x="4240.4" y="801.36" width="42.1768" height="48.6656" fill="white"/>
<rect x="6553.63" y="801.36" width="42.1768" height="48.6656" fill="white"/>
<rect x="8999.89" y="801.36" width="42.1768" height="48.6656" fill="white"/>
<rect x="11446.1" y="801.36" width="42.1768" height="48.6656" fill="white"/>
<rect x="13892.4" y="801.36" width="42.1768" height="48.6656" fill="white"/>
<rect x="1472.95" y="425.013" width="42.1768" height="48.6656" fill="white"/>
<rect x="4240.4" y="425.013" width="42.1768" height="48.6656" fill="white"/>
<rect x="6553.63" y="425.013" width="42.1768" height="48.6656" fill="white"/>
<rect x="8999.89" y="425.013" width="42.1768" height="48.6656" fill="white"/>
<rect x="11446.1" y="425.013" width="42.1768" height="48.6656" fill="white"/>
<rect x="13892.4" y="425.013" width="42.1768" height="48.6656" fill="white"/>
<rect x="152.486" y="691.052" width="42.1768" height="48.6656" fill="white"/>
<rect x="2919.94" y="691.052" width="42.1768" height="48.6656" fill="white"/>
<rect x="5233.17" y="691.052" width="42.1768" height="48.6656" fill="white"/>
<rect x="7679.43" y="691.052" width="42.1768" height="48.6656" fill="white"/>
<rect x="10125.7" y="691.052" width="42.1768" height="48.6656" fill="white"/>
<rect x="12571.9" y="691.052" width="42.1768" height="48.6656" fill="white"/>
<rect x="593.721" y="691.052" width="42.1768" height="48.6656" fill="white"/>
<rect x="3361.17" y="691.052" width="42.1768" height="48.6656" fill="white"/>
<rect x="5674.41" y="691.052" width="42.1768" height="48.6656" fill="white"/>
<rect x="8120.67" y="691.052" width="42.1768" height="48.6656" fill="white"/>
<rect x="10566.9" y="691.052" width="42.1768" height="48.6656" fill="white"/>
<rect x="13013.2" y="691.052" width="42.1768" height="48.6656" fill="white"/>
<rect x="1031.71" y="700.785" width="42.1768" height="48.6656" fill="white"/>
<rect x="3799.16" y="700.785" width="42.1768" height="48.6656" fill="white"/>
<rect x="6112.4" y="700.785" width="42.1768" height="48.6656" fill="white"/>
<rect x="8558.66" y="700.785" width="42.1768" height="48.6656" fill="white"/>
<rect x="11004.9" y="700.785" width="42.1768" height="48.6656" fill="white"/>
<rect x="13451.2" y="700.785" width="42.1768" height="48.6656" fill="white"/>
<rect x="1472.95" y="704.029" width="42.1768" height="48.6656" fill="white"/>
<rect x="4240.4" y="704.029" width="42.1768" height="48.6656" fill="white"/>
<rect x="6553.63" y="704.029" width="42.1768" height="48.6656" fill="white"/>
<rect x="8999.89" y="704.029" width="42.1768" height="48.6656" fill="white"/>
<rect x="11446.1" y="704.029" width="42.1768" height="48.6656" fill="white"/>
<rect x="13892.4" y="704.029" width="42.1768" height="48.6656" fill="white"/>
<rect x="1472.95" y="327.682" width="42.1768" height="48.6656" fill="white"/>
<rect x="4240.4" y="327.682" width="42.1768" height="48.6656" fill="white"/>
<rect x="6553.63" y="327.682" width="42.1768" height="48.6656" fill="white"/>
<rect x="8999.89" y="327.682" width="42.1768" height="48.6656" fill="white"/>
<rect x="11446.1" y="327.682" width="42.1768" height="48.6656" fill="white"/>
<rect x="13892.4" y="327.682" width="42.1768" height="48.6656" fill="white"/>
<rect x="152.486" y="593.72" width="42.1768" height="48.6656" fill="white"/>
<rect x="2919.94" y="593.72" width="42.1768" height="48.6656" fill="white"/>
<rect x="5233.17" y="593.72" width="42.1768" height="48.6656" fill="white"/>
<rect x="7679.43" y="593.72" width="42.1768" height="48.6656" fill="white"/>
<rect x="10125.7" y="593.72" width="42.1768" height="48.6656" fill="white"/>
<rect x="12571.9" y="593.72" width="42.1768" height="48.6656" fill="white"/>
<rect x="593.721" y="593.72" width="42.1768" height="48.6656" fill="white"/>
<rect x="3361.17" y="593.72" width="42.1768" height="48.6656" fill="white"/>
<rect x="5674.41" y="593.72" width="42.1768" height="48.6656" fill="white"/>
<rect x="8120.67" y="593.72" width="42.1768" height="48.6656" fill="white"/>
<rect x="10566.9" y="593.72" width="42.1768" height="48.6656" fill="white"/>
<rect x="13013.2" y="593.72" width="42.1768" height="48.6656" fill="white"/>
<rect x="1031.71" y="603.453" width="42.1768" height="48.6656" fill="white"/>
<rect x="3799.16" y="603.453" width="42.1768" height="48.6656" fill="white"/>
<rect x="6112.4" y="603.453" width="42.1768" height="48.6656" fill="white"/>
<rect x="8558.66" y="603.453" width="42.1768" height="48.6656" fill="white"/>
<rect x="11004.9" y="603.453" width="42.1768" height="48.6656" fill="white"/>
<rect x="13451.2" y="603.453" width="42.1768" height="48.6656" fill="white"/>
<rect x="1472.95" y="606.698" width="42.1768" height="48.6656" fill="white"/>
<rect x="4240.4" y="606.698" width="42.1768" height="48.6656" fill="white"/>
<rect x="6553.63" y="606.698" width="42.1768" height="48.6656" fill="white"/>
<rect x="8999.89" y="606.698" width="42.1768" height="48.6656" fill="white"/>
<rect x="11446.1" y="606.698" width="42.1768" height="48.6656" fill="white"/>
<rect x="13892.4" y="606.698" width="42.1768" height="48.6656" fill="white"/>
<rect x="1472.95" y="230.351" width="42.1768" height="48.6656" fill="white"/>
<rect x="4240.4" y="230.351" width="42.1768" height="48.6656" fill="white"/>
<rect x="6553.63" y="230.351" width="42.1768" height="48.6656" fill="white"/>
<rect x="8999.89" y="230.351" width="42.1768" height="48.6656" fill="white"/>
<rect x="11446.1" y="230.351" width="42.1768" height="48.6656" fill="white"/>
<rect x="13892.4" y="230.351" width="42.1768" height="48.6656" fill="white"/>
<rect x="152.486" y="496.389" width="42.1768" height="48.6656" fill="white"/>
<rect x="2919.94" y="496.389" width="42.1768" height="48.6656" fill="white"/>
<rect x="5233.17" y="496.389" width="42.1768" height="48.6656" fill="white"/>
<rect x="7679.43" y="496.389" width="42.1768" height="48.6656" fill="white"/>
<rect x="10125.7" y="496.389" width="42.1768" height="48.6656" fill="white"/>
<rect x="12571.9" y="496.389" width="42.1768" height="48.6656" fill="white"/>
<rect x="593.721" y="496.389" width="42.1768" height="48.6656" fill="white"/>
<rect x="3361.17" y="496.389" width="42.1768" height="48.6656" fill="white"/>
<rect x="5674.41" y="496.389" width="42.1768" height="48.6656" fill="white"/>
<rect x="8120.67" y="496.389" width="42.1768" height="48.6656" fill="white"/>
<rect x="10566.9" y="496.389" width="42.1768" height="48.6656" fill="white"/>
<rect x="13013.2" y="496.389" width="42.1768" height="48.6656" fill="white"/>
<rect x="1031.71" y="506.122" width="42.1768" height="48.6656" fill="white"/>
<rect x="3799.16" y="506.122" width="42.1768" height="48.6656" fill="white"/>
<rect x="6112.4" y="506.122" width="42.1768" height="48.6656" fill="white"/>
<rect x="8558.66" y="506.122" width="42.1768" height="48.6656" fill="white"/>
<rect x="11004.9" y="506.122" width="42.1768" height="48.6656" fill="white"/>
<rect x="13451.2" y="506.122" width="42.1768" height="48.6656" fill="white"/>
<rect x="1472.95" y="509.367" width="42.1768" height="48.6656" fill="#FFD30F"/>
<rect x="4240.4" y="509.367" width="42.1768" height="48.6656" fill="white"/>
<rect x="6553.63" y="509.367" width="42.1768" height="48.6656" fill="white"/>
<rect x="8999.89" y="509.367" width="42.1768" height="48.6656" fill="white"/>
<rect x="11446.1" y="509.367" width="42.1768" height="48.6656" fill="white"/>
<rect x="13892.4" y="509.367" width="42.1768" height="48.6656" fill="white"/>
<rect x="1472.95" y="133.019" width="42.1768" height="48.6656" fill="white"/>
<rect x="4240.4" y="133.019" width="42.1768" height="48.6656" fill="white"/>
<rect x="6553.63" y="133.019" width="42.1768" height="48.6656" fill="white"/>
<rect x="8999.89" y="133.019" width="42.1768" height="48.6656" fill="white"/>
<rect x="11446.1" y="133.019" width="42.1768" height="48.6656" fill="white"/>
<rect x="13892.4" y="133.019" width="42.1768" height="48.6656" fill="white"/>
<rect x="1031.71" y="421.769" width="42.1768" height="48.6656" fill="white"/>
<rect x="3799.16" y="421.769" width="42.1768" height="48.6656" fill="white"/>
<rect x="6112.4" y="421.769" width="42.1768" height="48.6656" fill="white"/>
<rect x="8558.66" y="421.769" width="42.1768" height="48.6656" fill="white"/>
<rect x="11004.9" y="421.769" width="42.1768" height="48.6656" fill="white"/>
<rect x="13451.2" y="421.769" width="42.1768" height="48.6656" fill="white"/>
<rect x="1472.95" y="425.013" width="42.1768" height="48.6656" fill="white"/>
<rect x="4240.4" y="425.013" width="42.1768" height="48.6656" fill="white"/>
<rect x="6553.63" y="425.013" width="42.1768" height="48.6656" fill="white"/>
<rect x="8999.89" y="425.013" width="42.1768" height="48.6656" fill="white"/>
<rect x="11446.1" y="425.013" width="42.1768" height="48.6656" fill="white"/>
<rect x="13892.4" y="425.013" width="42.1768" height="48.6656" fill="white"/>
<rect x="1472.95" y="48.6655" width="42.1768" height="48.6656" fill="white"/>
<rect x="4240.4" y="48.6655" width="42.1768" height="48.6656" fill="white"/>
<rect x="6553.63" y="48.6655" width="42.1768" height="48.6656" fill="white"/>
<rect x="8999.89" y="48.6655" width="42.1768" height="48.6656" fill="white"/>
<rect x="11446.1" y="48.6655" width="42.1768" height="48.6656" fill="white"/>
<rect x="13892.4" y="48.6655" width="42.1768" height="48.6656" fill="white"/>
<rect x="152.486" y="399.058" width="42.1768" height="48.6656" fill="white"/>
<rect x="2919.94" y="399.058" width="42.1768" height="48.6656" fill="white"/>
<rect x="5233.17" y="399.058" width="42.1768" height="48.6656" fill="white"/>
<rect x="7679.43" y="399.058" width="42.1768" height="48.6656" fill="white"/>
<rect x="10125.7" y="399.058" width="42.1768" height="48.6656" fill="white"/>
<rect x="12571.9" y="399.058" width="42.1768" height="48.6656" fill="white"/>
<rect x="152.486" y="301.727" width="42.1768" height="48.6656" fill="white"/>
<rect x="2919.94" y="301.727" width="42.1768" height="48.6656" fill="white"/>
<rect x="5233.17" y="301.727" width="42.1768" height="48.6656" fill="white"/>
<rect x="7679.43" y="301.727" width="42.1768" height="48.6656" fill="white"/>
<rect x="10125.7" y="301.727" width="42.1768" height="48.6656" fill="white"/>
<rect x="12571.9" y="301.727" width="42.1768" height="48.6656" fill="white"/>
<rect x="152.486" y="204.396" width="42.1768" height="48.6656" fill="white"/>
<rect x="2919.94" y="204.396" width="42.1768" height="48.6656" fill="white"/>
<rect x="5233.17" y="204.396" width="42.1768" height="48.6656" fill="white"/>
<rect x="7679.43" y="204.396" width="42.1768" height="48.6656" fill="white"/>
<rect x="10125.7" y="204.396" width="42.1768" height="48.6656" fill="white"/>
<rect x="12571.9" y="204.396" width="42.1768" height="48.6656" fill="white"/>
<rect x="152.486" y="107.064" width="42.1768" height="48.6656" fill="white"/>
<rect x="2919.94" y="107.064" width="42.1768" height="48.6656" fill="white"/>
<rect x="5233.17" y="107.064" width="42.1768" height="48.6656" fill="white"/>
<rect x="7679.43" y="107.064" width="42.1768" height="48.6656" fill="white"/>
<rect x="10125.7" y="107.064" width="42.1768" height="48.6656" fill="white"/>
<rect x="12571.9" y="107.064" width="42.1768" height="48.6656" fill="white"/>
<rect x="249.817" y="788.383" width="42.1768" height="48.6656" fill="white"/>
<rect x="3017.27" y="788.383" width="42.1768" height="48.6656" fill="white"/>
<rect x="5330.51" y="788.383" width="42.1768" height="48.6656" fill="white"/>
<rect x="7776.76" y="788.383" width="42.1768" height="48.6656" fill="white"/>
<rect x="10223" y="788.383" width="42.1768" height="48.6656" fill="white"/>
<rect x="12669.3" y="788.383" width="42.1768" height="48.6656" fill="white"/>
<rect x="691.052" y="788.383" width="42.1768" height="48.6656" fill="white"/>
<rect x="3458.5" y="788.383" width="42.1768" height="48.6656" fill="white"/>
<rect x="5771.74" y="788.383" width="42.1768" height="48.6656" fill="white"/>
<rect x="8218" y="788.383" width="42.1768" height="48.6656" fill="white"/>
<rect x="10664.3" y="788.383" width="42.1768" height="48.6656" fill="white"/>
<rect x="13110.5" y="788.383" width="42.1768" height="48.6656" fill="white"/>
<rect x="1129.04" y="798.116" width="42.1768" height="48.6656" fill="white"/>
<rect x="3896.49" y="798.116" width="42.1768" height="48.6656" fill="white"/>
<rect x="6209.73" y="798.116" width="42.1768" height="48.6656" fill="white"/>
<rect x="8655.99" y="798.116" width="42.1768" height="48.6656" fill="white"/>
<rect x="11102.2" y="798.116" width="42.1768" height="48.6656" fill="white"/>
<rect x="13548.5" y="798.116" width="42.1768" height="48.6656" fill="white"/>
<rect x="1570.28" y="801.36" width="42.1768" height="48.6656" fill="white"/>
<rect x="4337.73" y="801.36" width="42.1768" height="48.6656" fill="white"/>
<rect x="6650.96" y="801.36" width="42.1768" height="48.6656" fill="white"/>
<rect x="9097.22" y="801.36" width="42.1768" height="48.6656" fill="white"/>
<rect x="11543.5" y="801.36" width="42.1768" height="48.6656" fill="white"/>
<rect x="13989.7" y="801.36" width="42.1768" height="48.6656" fill="white"/>
<rect x="1570.28" y="425.013" width="42.1768" height="48.6656" fill="white"/>
<rect x="4337.73" y="425.013" width="42.1768" height="48.6656" fill="white"/>
<rect x="6650.96" y="425.013" width="42.1768" height="48.6656" fill="white"/>
<rect x="9097.22" y="425.013" width="42.1768" height="48.6656" fill="white"/>
<rect x="11543.5" y="425.013" width="42.1768" height="48.6656" fill="white"/>
<rect x="13989.7" y="425.013" width="42.1768" height="48.6656" fill="white"/>
<rect x="249.817" y="691.052" width="42.1768" height="48.6656" fill="white"/>
<rect x="3017.27" y="691.052" width="42.1768" height="48.6656" fill="white"/>
<rect x="5330.51" y="691.052" width="42.1768" height="48.6656" fill="white"/>
<rect x="7776.76" y="691.052" width="42.1768" height="48.6656" fill="white"/>
<rect x="10223" y="691.052" width="42.1768" height="48.6656" fill="white"/>
<rect x="12669.3" y="691.052" width="42.1768" height="48.6656" fill="white"/>
<rect x="691.052" y="691.052" width="42.1768" height="48.6656" fill="white"/>
<rect x="3458.5" y="691.052" width="42.1768" height="48.6656" fill="white"/>
<rect x="5771.74" y="691.052" width="42.1768" height="48.6656" fill="white"/>
<rect x="8218" y="691.052" width="42.1768" height="48.6656" fill="white"/>
<rect x="10664.3" y="691.052" width="42.1768" height="48.6656" fill="white"/>
<rect x="13110.5" y="691.052" width="42.1768" height="48.6656" fill="white"/>
<rect x="1129.04" y="700.785" width="42.1768" height="48.6656" fill="white"/>
<rect x="3896.49" y="700.785" width="42.1768" height="48.6656" fill="white"/>
<rect x="6209.73" y="700.785" width="42.1768" height="48.6656" fill="white"/>
<rect x="8655.99" y="700.785" width="42.1768" height="48.6656" fill="white"/>
<rect x="11102.2" y="700.785" width="42.1768" height="48.6656" fill="white"/>
<rect x="13548.5" y="700.785" width="42.1768" height="48.6656" fill="white"/>
<rect x="1570.28" y="704.029" width="42.1768" height="48.6656" fill="white"/>
<rect x="4337.73" y="704.029" width="42.1768" height="48.6656" fill="white"/>
<rect x="6650.96" y="704.029" width="42.1768" height="48.6656" fill="white"/>
<rect x="9097.22" y="704.029" width="42.1768" height="48.6656" fill="white"/>
<rect x="11543.5" y="704.029" width="42.1768" height="48.6656" fill="white"/>
<rect x="13989.7" y="704.029" width="42.1768" height="48.6656" fill="white"/>
<rect x="1570.28" y="327.682" width="42.1768" height="48.6656" fill="white"/>
<rect x="4337.73" y="327.682" width="42.1768" height="48.6656" fill="white"/>
<rect x="6650.96" y="327.682" width="42.1768" height="48.6656" fill="white"/>
<rect x="9097.22" y="327.682" width="42.1768" height="48.6656" fill="white"/>
<rect x="11543.5" y="327.682" width="42.1768" height="48.6656" fill="white"/>
<rect x="13989.7" y="327.682" width="42.1768" height="48.6656" fill="white"/>
<rect x="249.817" y="593.72" width="42.1768" height="48.6656" fill="white"/>
<rect x="3017.27" y="593.72" width="42.1768" height="48.6656" fill="#FF0000"/>
<rect x="5330.51" y="593.72" width="42.1768" height="48.6656" fill="white"/>
<rect x="7776.76" y="593.72" width="42.1768" height="48.6656" fill="white"/>
<rect x="10223" y="593.72" width="42.1768" height="48.6656" fill="white"/>
<rect x="12669.3" y="593.72" width="42.1768" height="48.6656" fill="white"/>
<rect x="691.052" y="593.72" width="42.1768" height="48.6656" fill="white"/>
<rect x="3458.5" y="593.72" width="42.1768" height="48.6656" fill="white"/>
<rect x="5771.74" y="593.72" width="42.1768" height="48.6656" fill="white"/>
<rect x="8218" y="593.72" width="42.1768" height="48.6656" fill="white"/>
<rect x="10664.3" y="593.72" width="42.1768" height="48.6656" fill="white"/>
<rect x="13110.5" y="593.72" width="42.1768" height="48.6656" fill="white"/>
<rect x="1129.04" y="603.453" width="42.1768" height="48.6656" fill="white"/>
<rect x="3896.49" y="603.453" width="42.1768" height="48.6656" fill="white"/>
<rect x="6209.73" y="603.453" width="42.1768" height="48.6656" fill="white"/>
<rect x="8655.99" y="603.453" width="42.1768" height="48.6656" fill="white"/>
<rect x="11102.2" y="603.453" width="42.1768" height="48.6656" fill="white"/>
<rect x="13548.5" y="603.453" width="42.1768" height="48.6656" fill="white"/>
<rect x="1570.28" y="606.698" width="42.1768" height="48.6656" fill="white"/>
<rect x="4337.73" y="606.698" width="42.1768" height="48.6656" fill="white"/>
<rect x="6650.96" y="606.698" width="42.1768" height="48.6656" fill="white"/>
<rect x="9097.22" y="606.698" width="42.1768" height="48.6656" fill="white"/>
<rect x="11543.5" y="606.698" width="42.1768" height="48.6656" fill="white"/>
<rect x="13989.7" y="606.698" width="42.1768" height="48.6656" fill="white"/>
<rect x="1570.28" y="230.351" width="42.1768" height="48.6656" fill="white"/>
<rect x="4337.73" y="230.351" width="42.1768" height="48.6656" fill="white"/>
<rect x="6650.96" y="230.351" width="42.1768" height="48.6656" fill="white"/>
<rect x="9097.22" y="230.351" width="42.1768" height="48.6656" fill="white"/>
<rect x="11543.5" y="230.351" width="42.1768" height="48.6656" fill="white"/>
<rect x="13989.7" y="230.351" width="42.1768" height="48.6656" fill="white"/>
<rect x="249.817" y="496.389" width="42.1768" height="48.6656" fill="white"/>
<rect x="3017.27" y="496.389" width="42.1768" height="48.6656" fill="white"/>
<rect x="5330.51" y="496.389" width="42.1768" height="48.6656" fill="white"/>
<rect x="7776.76" y="496.389" width="42.1768" height="48.6656" fill="white"/>
<rect x="10223" y="496.389" width="42.1768" height="48.6656" fill="white"/>
<rect x="12669.3" y="496.389" width="42.1768" height="48.6656" fill="white"/>
<rect x="691.052" y="496.389" width="42.1768" height="48.6656" fill="white"/>
<rect x="3458.5" y="496.389" width="42.1768" height="48.6656" fill="white"/>
<rect x="5771.74" y="496.389" width="42.1768" height="48.6656" fill="white"/>
<rect x="8218" y="496.389" width="42.1768" height="48.6656" fill="white"/>
<rect x="10664.3" y="496.389" width="42.1768" height="48.6656" fill="white"/>
<rect x="13110.5" y="496.389" width="42.1768" height="48.6656" fill="white"/>
<rect x="1129.04" y="506.122" width="42.1768" height="48.6656" fill="white"/>
<rect x="3896.49" y="506.122" width="42.1768" height="48.6656" fill="white"/>
<rect x="6209.73" y="506.122" width="42.1768" height="48.6656" fill="white"/>
<rect x="8655.99" y="506.122" width="42.1768" height="48.6656" fill="white"/>
<rect x="11102.2" y="506.122" width="42.1768" height="48.6656" fill="white"/>
<rect x="13548.5" y="506.122" width="42.1768" height="48.6656" fill="white"/>
<rect x="1570.28" y="509.367" width="42.1768" height="48.6656" fill="white"/>
<rect x="4337.73" y="509.367" width="42.1768" height="48.6656" fill="white"/>
<rect x="6650.96" y="509.367" width="42.1768" height="48.6656" fill="white"/>
<rect x="9097.22" y="509.367" width="42.1768" height="48.6656" fill="white"/>
<rect x="11543.5" y="509.367" width="42.1768" height="48.6656" fill="white"/>
<rect x="13989.7" y="509.367" width="42.1768" height="48.6656" fill="white"/>
<rect x="1570.28" y="133.019" width="42.1768" height="48.6656" fill="white"/>
<rect x="4337.73" y="133.019" width="42.1768" height="48.6656" fill="white"/>
<rect x="6650.96" y="133.019" width="42.1768" height="48.6656" fill="white"/>
<rect x="9097.22" y="133.019" width="42.1768" height="48.6656" fill="white"/>
<rect x="11543.5" y="133.019" width="42.1768" height="48.6656" fill="white"/>
<rect x="13989.7" y="133.019" width="42.1768" height="48.6656" fill="white"/>
<rect x="1129.04" y="421.769" width="42.1768" height="48.6656" fill="white"/>
<rect x="3896.49" y="421.769" width="42.1768" height="48.6656" fill="white"/>
<rect x="6209.73" y="421.769" width="42.1768" height="48.6656" fill="white"/>
<rect x="8655.99" y="421.769" width="42.1768" height="48.6656" fill="white"/>
<rect x="11102.2" y="421.769" width="42.1768" height="48.6656" fill="white"/>
<rect x="13548.5" y="421.769" width="42.1768" height="48.6656" fill="white"/>
<rect x="1570.28" y="425.013" width="42.1768" height="48.6656" fill="white"/>
<rect x="4337.73" y="425.013" width="42.1768" height="48.6656" fill="white"/>
<rect x="6650.96" y="425.013" width="42.1768" height="48.6656" fill="white"/>
<rect x="9097.22" y="425.013" width="42.1768" height="48.6656" fill="white"/>
<rect x="11543.5" y="425.013" width="42.1768" height="48.6656" fill="white"/>
<rect x="13989.7" y="425.013" width="42.1768" height="48.6656" fill="white"/>
<rect x="1570.28" y="48.6655" width="42.1768" height="48.6656" fill="white"/>
<rect x="4337.73" y="48.6655" width="42.1768" height="48.6656" fill="white"/>
<rect x="6650.96" y="48.6655" width="42.1768" height="48.6656" fill="white"/>
<rect x="9097.22" y="48.6655" width="42.1768" height="48.6656" fill="white"/>
<rect x="11543.5" y="48.6655" width="42.1768" height="48.6656" fill="white"/>
<rect x="13989.7" y="48.6655" width="42.1768" height="48.6656" fill="white"/>
<rect x="249.817" y="399.058" width="42.1768" height="48.6656" fill="white"/>
<rect x="3017.27" y="399.058" width="42.1768" height="48.6656" fill="white"/>
<rect x="5330.51" y="399.058" width="42.1768" height="48.6656" fill="white"/>
<rect x="7776.76" y="399.058" width="42.1768" height="48.6656" fill="white"/>
<rect x="10223" y="399.058" width="42.1768" height="48.6656" fill="white"/>
<rect x="12669.3" y="399.058" width="42.1768" height="48.6656" fill="white"/>
<rect x="249.817" y="301.727" width="42.1768" height="48.6656" fill="white"/>
<rect x="3017.27" y="301.727" width="42.1768" height="48.6656" fill="white"/>
<rect x="5330.51" y="301.727" width="42.1768" height="48.6656" fill="white"/>
<rect x="7776.76" y="301.727" width="42.1768" height="48.6656" fill="white"/>
<rect x="10223" y="301.727" width="42.1768" height="48.6656" fill="white"/>
<rect x="12669.3" y="301.727" width="42.1768" height="48.6656" fill="white"/>
<rect x="249.817" y="204.396" width="42.1768" height="48.6656" fill="white"/>
<rect x="3017.27" y="204.396" width="42.1768" height="48.6656" fill="white"/>
<rect x="5330.51" y="204.396" width="42.1768" height="48.6656" fill="white"/>
<rect x="7776.76" y="204.396" width="42.1768" height="48.6656" fill="white"/>
<rect x="10223" y="204.396" width="42.1768" height="48.6656" fill="white"/>
<rect x="12669.3" y="204.396" width="42.1768" height="48.6656" fill="white"/>
<rect x="249.817" y="107.064" width="42.1768" height="48.6656" fill="white"/>
<rect x="3017.27" y="107.064" width="42.1768" height="48.6656" fill="white"/>
<rect x="5330.51" y="107.064" width="42.1768" height="48.6656" fill="white"/>
<rect x="7776.76" y="107.064" width="42.1768" height="48.6656" fill="white"/>
<rect x="10223" y="107.064" width="42.1768" height="48.6656" fill="white"/>
<rect x="12669.3" y="107.064" width="42.1768" height="48.6656" fill="white"/>
<rect x="347.148" y="788.383" width="42.1768" height="48.6656" fill="white"/>
<rect x="3114.6" y="788.383" width="42.1768" height="48.6656" fill="white"/>
<rect x="5427.84" y="788.383" width="42.1768" height="48.6656" fill="white"/>
<rect x="7874.09" y="788.383" width="42.1768" height="48.6656" fill="white"/>
<rect x="10320.4" y="788.383" width="42.1768" height="48.6656" fill="white"/>
<rect x="12766.6" y="788.383" width="42.1768" height="48.6656" fill="white"/>
<rect x="788.383" y="788.383" width="42.1768" height="48.6656" fill="white"/>
<rect x="3555.83" y="788.383" width="42.1768" height="48.6656" fill="white"/>
<rect x="5869.07" y="788.383" width="42.1768" height="48.6656" fill="white"/>
<rect x="8315.33" y="788.383" width="42.1768" height="48.6656" fill="white"/>
<rect x="10761.6" y="788.383" width="42.1768" height="48.6656" fill="white"/>
<rect x="13207.8" y="788.383" width="42.1768" height="48.6656" fill="white"/>
<rect x="1226.37" y="798.116" width="42.1768" height="48.6656" fill="white"/>
<rect x="3993.82" y="798.116" width="42.1768" height="48.6656" fill="white"/>
<rect x="6307.06" y="798.116" width="42.1768" height="48.6656" fill="white"/>
<rect x="8753.32" y="798.116" width="42.1768" height="48.6656" fill="white"/>
<rect x="11199.6" y="798.116" width="42.1768" height="48.6656" fill="white"/>
<rect x="13645.8" y="798.116" width="42.1768" height="48.6656" fill="white"/>
<rect x="1667.61" y="801.36" width="42.1768" height="48.6656" fill="white"/>
<rect x="4435.06" y="801.36" width="42.1768" height="48.6656" fill="white"/>
<rect x="6748.3" y="801.36" width="42.1768" height="48.6656" fill="white"/>
<rect x="9194.55" y="801.36" width="42.1768" height="48.6656" fill="white"/>
<rect x="11640.8" y="801.36" width="42.1768" height="48.6656" fill="white"/>
<rect x="14087.1" y="801.36" width="42.1768" height="48.6656" fill="white"/>
<rect x="1667.61" y="425.013" width="42.1768" height="48.6656" fill="white"/>
<rect x="4435.06" y="425.013" width="42.1768" height="48.6656" fill="white"/>
<rect x="6748.3" y="425.013" width="42.1768" height="48.6656" fill="white"/>
<rect x="9194.55" y="425.013" width="42.1768" height="48.6656" fill="white"/>
<rect x="11640.8" y="425.013" width="42.1768" height="48.6656" fill="white"/>
<rect x="14087.1" y="425.013" width="42.1768" height="48.6656" fill="white"/>
<rect x="347.148" y="691.052" width="42.1768" height="48.6656" fill="white"/>
<rect x="3114.6" y="691.052" width="42.1768" height="48.6656" fill="white"/>
<rect x="5427.84" y="691.052" width="42.1768" height="48.6656" fill="white"/>
<rect x="7874.09" y="691.052" width="42.1768" height="48.6656" fill="white"/>
<rect x="10320.4" y="691.052" width="42.1768" height="48.6656" fill="white"/>
<rect x="12766.6" y="691.052" width="42.1768" height="48.6656" fill="white"/>
<rect x="788.383" y="691.052" width="42.1768" height="48.6656" fill="white"/>
<rect x="3555.83" y="691.052" width="42.1768" height="48.6656" fill="white"/>
<rect x="5869.07" y="691.052" width="42.1768" height="48.6656" fill="white"/>
<rect x="8315.33" y="691.052" width="42.1768" height="48.6656" fill="white"/>
<rect x="10761.6" y="691.052" width="42.1768" height="48.6656" fill="white"/>
<rect x="13207.8" y="691.052" width="42.1768" height="48.6656" fill="white"/>
<rect x="1226.37" y="700.785" width="42.1768" height="48.6656" fill="white"/>
<rect x="3993.82" y="700.785" width="42.1768" height="48.6656" fill="white"/>
<rect x="6307.06" y="700.785" width="42.1768" height="48.6656" fill="white"/>
<rect x="8753.32" y="700.785" width="42.1768" height="48.6656" fill="white"/>
<rect x="11199.6" y="700.785" width="42.1768" height="48.6656" fill="white"/>
<rect x="13645.8" y="700.785" width="42.1768" height="48.6656" fill="white"/>
<rect x="347.148" y="593.72" width="42.1768" height="48.6656" fill="white"/>
<rect x="3114.6" y="593.72" width="42.1768" height="48.6656" fill="white"/>
<rect x="5427.84" y="593.72" width="42.1768" height="48.6656" fill="white"/>
<rect x="7874.09" y="593.72" width="42.1768" height="48.6656" fill="white"/>
<rect x="10320.4" y="593.72" width="42.1768" height="48.6656" fill="white"/>
<rect x="12766.6" y="593.72" width="42.1768" height="48.6656" fill="white"/>
<rect x="788.383" y="593.72" width="42.1768" height="48.6656" fill="white"/>
<rect x="3555.83" y="593.72" width="42.1768" height="48.6656" fill="white"/>
<rect x="5869.07" y="593.72" width="42.1768" height="48.6656" fill="white"/>
<rect x="8315.33" y="593.72" width="42.1768" height="48.6656" fill="#FFD30F"/>
<rect x="10761.6" y="593.72" width="42.1768" height="48.6656" fill="white"/>
<rect x="13207.8" y="593.72" width="42.1768" height="48.6656" fill="white"/>
<rect x="1226.37" y="603.453" width="42.1768" height="48.6656" fill="white"/>
<rect x="3993.82" y="603.453" width="42.1768" height="48.6656" fill="white"/>
<rect x="6307.06" y="603.453" width="42.1768" height="48.6656" fill="white"/>
<rect x="8753.32" y="603.453" width="42.1768" height="48.6656" fill="white"/>
<rect x="11199.6" y="603.453" width="42.1768" height="48.6656" fill="white"/>
<rect x="13645.8" y="603.453" width="42.1768" height="48.6656" fill="white"/>
<rect x="1667.61" y="606.698" width="42.1768" height="48.6656" fill="white"/>
<rect x="4435.06" y="606.698" width="42.1768" height="48.6656" fill="white"/>
<rect x="6748.3" y="606.698" width="42.1768" height="48.6656" fill="white"/>
<rect x="9194.55" y="606.698" width="42.1768" height="48.6656" fill="white"/>
<rect x="11640.8" y="606.698" width="42.1768" height="48.6656" fill="white"/>
<rect x="14087.1" y="606.698" width="42.1768" height="48.6656" fill="white"/>
<rect x="1667.61" y="230.351" width="42.1768" height="48.6656" fill="white"/>
<rect x="4435.06" y="230.351" width="42.1768" height="48.6656" fill="white"/>
<rect x="6748.3" y="230.351" width="42.1768" height="48.6656" fill="white"/>
<rect x="9194.55" y="230.351" width="42.1768" height="48.6656" fill="white"/>
<rect x="11640.8" y="230.351" width="42.1768" height="48.6656" fill="white"/>
<rect x="14087.1" y="230.351" width="42.1768" height="48.6656" fill="white"/>
<rect x="347.148" y="496.389" width="42.1768" height="48.6656" fill="white"/>
<rect x="3114.6" y="496.389" width="42.1768" height="48.6656" fill="white"/>
<rect x="5427.84" y="496.389" width="42.1768" height="48.6656" fill="white"/>
<rect x="7874.09" y="496.389" width="42.1768" height="48.6656" fill="white"/>
<rect x="10320.4" y="496.389" width="42.1768" height="48.6656" fill="white"/>
<rect x="12766.6" y="496.389" width="42.1768" height="48.6656" fill="white"/>
<rect x="788.383" y="496.389" width="42.1768" height="48.6656" fill="white"/>
<rect x="3555.83" y="496.389" width="42.1768" height="48.6656" fill="white"/>
<rect x="5869.07" y="496.389" width="42.1768" height="48.6656" fill="white"/>
<rect x="8315.33" y="496.389" width="42.1768" height="48.6656" fill="white"/>
<rect x="10761.6" y="496.389" width="42.1768" height="48.6656" fill="white"/>
<rect x="13207.8" y="496.389" width="42.1768" height="48.6656" fill="white"/>
<rect x="1226.37" y="506.122" width="42.1768" height="48.6656" fill="white"/>
<rect x="3993.82" y="506.122" width="42.1768" height="48.6656" fill="white"/>
<rect x="6307.06" y="506.122" width="42.1768" height="48.6656" fill="white"/>
<rect x="8753.32" y="506.122" width="42.1768" height="48.6656" fill="white"/>
<rect x="11199.6" y="506.122" width="42.1768" height="48.6656" fill="white"/>
<rect x="13645.8" y="506.122" width="42.1768" height="48.6656" fill="white"/>
<rect x="1226.37" y="421.769" width="42.1768" height="48.6656" fill="white"/>
<rect x="3993.82" y="421.769" width="42.1768" height="48.6656" fill="white"/>
<rect x="6307.06" y="421.769" width="42.1768" height="48.6656" fill="white"/>
<rect x="8753.32" y="421.769" width="42.1768" height="48.6656" fill="white"/>
<rect x="11199.6" y="421.769" width="42.1768" height="48.6656" fill="white"/>
<rect x="13645.8" y="421.769" width="42.1768" height="48.6656" fill="white"/>
<rect x="1667.61" y="425.013" width="42.1768" height="48.6656" fill="white"/>
<rect x="4435.06" y="425.013" width="42.1768" height="48.6656" fill="white"/>
<rect x="6748.3" y="425.013" width="42.1768" height="48.6656" fill="white"/>
<rect x="9194.55" y="425.013" width="42.1768" height="48.6656" fill="white"/>
<rect x="11640.8" y="425.013" width="42.1768" height="48.6656" fill="white"/>
<rect x="14087.1" y="425.013" width="42.1768" height="48.6656" fill="white"/>
<rect x="1667.61" y="48.6655" width="42.1768" height="48.6656" fill="white"/>
<rect x="4435.06" y="48.6655" width="42.1768" height="48.6656" fill="white"/>
<rect x="6748.3" y="48.6655" width="42.1768" height="48.6656" fill="white"/>
<rect x="9194.55" y="48.6655" width="42.1768" height="48.6656" fill="white"/>
<rect x="11640.8" y="48.6655" width="42.1768" height="48.6656" fill="white"/>
<rect x="14087.1" y="48.6655" width="42.1768" height="48.6656" fill="white"/>
<rect x="347.148" y="399.058" width="42.1768" height="48.6656" fill="white"/>
<rect x="3114.6" y="399.058" width="42.1768" height="48.6656" fill="white"/>
<rect x="5427.84" y="399.058" width="42.1768" height="48.6656" fill="white"/>
<rect x="7874.09" y="399.058" width="42.1768" height="48.6656" fill="white"/>
<rect x="10320.4" y="399.058" width="42.1768" height="48.6656" fill="white"/>
<rect x="12766.6" y="399.058" width="42.1768" height="48.6656" fill="white"/>
<rect x="347.148" y="301.727" width="42.1768" height="48.6656" fill="white"/>
<rect x="3114.6" y="301.727" width="42.1768" height="48.6656" fill="#FFD30F"/>
<rect x="5427.84" y="301.727" width="42.1768" height="48.6656" fill="white"/>
<rect x="7874.09" y="301.727" width="42.1768" height="48.6656" fill="white"/>
<rect x="10320.4" y="301.727" width="42.1768" height="48.6656" fill="white"/>
<rect x="12766.6" y="301.727" width="42.1768" height="48.6656" fill="white"/>
<rect x="347.148" y="204.396" width="42.1768" height="48.6656" fill="white"/>
<rect x="3114.6" y="204.396" width="42.1768" height="48.6656" fill="white"/>
<rect x="5427.84" y="204.396" width="42.1768" height="48.6656" fill="white"/>
<rect x="7874.09" y="204.396" width="42.1768" height="48.6656" fill="white"/>
<rect x="10320.4" y="204.396" width="42.1768" height="48.6656" fill="white"/>
<rect x="12766.6" y="204.396" width="42.1768" height="48.6656" fill="white"/>
<rect x="347.148" y="107.064" width="42.1768" height="48.6656" fill="white"/>
<rect x="3114.6" y="107.064" width="42.1768" height="48.6656" fill="white"/>
<rect x="5427.84" y="107.064" width="42.1768" height="48.6656" fill="white"/>
<rect x="7874.09" y="107.064" width="42.1768" height="48.6656" fill="white"/>
<rect x="10320.4" y="107.064" width="42.1768" height="48.6656" fill="white"/>
<rect x="12766.6" y="107.064" width="42.1768" height="48.6656" fill="white"/>
</svg>
