<svg width="260" height="121" viewBox="0 0 260 121" fill="none" xmlns="http://www.w3.org/2000/svg">
<rect x="1.21429" y="97.3" width="50.8571" height="23.2" fill="#FF4406" stroke="black"/>
<rect x="53.0714" y="97.3" width="50.8571" height="23.2" fill="#FF4406" stroke="black"/>
<rect x="104.929" y="97.3" width="50.8571" height="23.2" fill="#FF4406" stroke="black"/>
<rect x="156.786" y="97.3" width="50.8571" height="23.2" fill="#FF4406" stroke="black"/>
<rect x="208.643" y="97.3" width="50.8571" height="23.2" fill="#FF4406" stroke="black"/>
<rect x="182.714" y="73.1" width="50.8571" height="23.2" fill="#FF4406" stroke="black"/>
<rect x="130.857" y="73.1" width="50.8571" height="23.2" fill="#FF4406" stroke="black"/>
<rect x="79" y="73.1" width="50.8571" height="23.2" fill="#FF4406" stroke="black"/>
<rect x="27.1429" y="73.1" width="50.8571" height="23.2" fill="#FF4406" stroke="black"/>
<rect x="53.0714" y="48.9" width="50.8571" height="23.2" fill="#FF4406" stroke="black"/>
<rect x="104.929" y="48.9" width="50.8571" height="23.2" fill="#FF4406" stroke="black"/>
<rect x="156.786" y="48.9" width="50.8571" height="23.2" fill="#FF4406" stroke="black"/>
<rect x="130.857" y="24.7" width="50.8571" height="23.2" fill="#FF4406" stroke="black"/>
<rect x="79" y="24.7" width="50.8571" height="23.2" fill="#FF4406" stroke="black"/>
<rect x="104.929" y="0.5" width="50.8571" height="23.2" fill="#FF4406" stroke="black"/>
</svg>
